<?xml version="1.0" encoding="UTF-8" ?>
<!DOCTYPE svg PUBLIC "-//W3C//DTD SVG 1.1//EN" "http://www.w3.org/Graphics/SVG/1.1/DTD/svg11.dtd">
<svg xmlns="http://www.w3.org/2000/svg" xmlns:xlink="http://www.w3.org/1999/xlink">
    <symbol id="directory" viewBox="0 0 24 24">
            <path opacity="0.1" d="M3 9.312C3 4.93757 3.93757 4 8.312 4H9.92963C10.5983 4 11.2228 4.3342 11.5937 4.8906L12.4063 6.1094C12.7772 6.6658 13.4017 7 14.0704 7C15.9647 7 17.8145 7 19.1258 7C20.1807 7 21.0128 7.82095 21.0029 8.8758C21.0013 9.05376 21 9.20638 21 9.312V14.688C21 19.0624 20.0624 20 15.688 20H8.312C3.93757 20 3 19.0624 3 14.688V9.312Z" fill="#323232"/>
            <path d="M3 9.312C3 4.93757 3.93757 4 8.312 4H9.92963C10.5983 4 11.2228 4.3342 11.5937 4.8906L12.4063 6.1094C12.7772 6.6658 13.4017 7 14.0704 7C15.9647 7 17.8145 7 19.1258 7C20.1807 7 21.0128 7.82095 21.0029 8.8758C21.0013 9.05376 21 9.20638 21 9.312V14.688C21 19.0624 20.0624 20 15.688 20H8.312C3.93757 20 3 19.0624 3 14.688V9.312Z" stroke="#323232" stroke-width="2"/>
    </symbol>
    <symbol id="file" viewBox="0 0 9.2 9.2">
        <rect width="100" height="100" style="fill:rgb(0,0,255);stroke-width:1;stroke:rgb(0,0,0)" />
    </symbol>
</svg>
